<svg xmlns="http://www.w3.org/2000/svg" viewBox="0 0 512 512"><defs><style>.cls-1{fill:#e4f9f5;}.cls-2{fill:#11999e;}.cls-3{fill:#30e3ca;}.cls-4{fill:#40514e;}</style></defs><title>logo</title><g id="Layer_2" data-name="Layer 2"><g id="Layer_1-2" data-name="Layer 1"><rect class="cls-1" width="512" height="512" rx="50" ry="50"/><path class="cls-2" d="M271.47,249.16l60.84-41.33v19.64l-46,29.46v.37l46,29.46v19.64l-60.86-41.32Z"/><path class="cls-2" d="M338.36,321.83,365.5,192.42h12.8L351.17,321.83Z"/><path class="cls-2" d="M449.81,265.65,389,306.41V286.77l47-29.46v-.37l-47-29.46V207.83l60.83,40.77Z"/><path class="cls-2" d="M64.59,249.16l60.84-41.33v19.64l-46,29.46v.37l46,29.46v19.64L64.59,265.09Z"/><path class="cls-2" d="M201.9,265.65l-60.84,40.77V286.77l47-29.46v-.37l-47-29.46V207.83L201.9,248.6Z"/><path class="cls-3" d="M3.66,175.92a3.13,3.13,0,0,0,.92,2.21L41.95,215.5a3.13,3.13,0,0,0,4.42,0l37.37-37.37a3.13,3.13,0,0,0,0-4.42l-5.9-5.9a3.13,3.13,0,0,0-4.42,0l-22,22V153a33.91,33.91,0,0,1,32.07-33.82l111.8,0A33.91,33.91,0,0,1,229.2,153v14.63a3.13,3.13,0,0,0,3.13,3.13h8.34a3.13,3.13,0,0,0,3.13-3.13V153a48.52,48.52,0,0,0-48.47-48.47l-112.14,0A48.53,48.53,0,0,0,36.86,153v36.73l-22-22a3.13,3.13,0,0,0-4.42,0l-5.9,5.9A3.13,3.13,0,0,0,3.66,175.92Z"/><path class="cls-3" d="M508.34,336.08a3.13,3.13,0,0,0-.92-2.21L470.05,296.5a3.13,3.13,0,0,0-4.42,0l-37.37,37.37a3.13,3.13,0,0,0,0,4.42l5.9,5.9a3.13,3.13,0,0,0,4.42,0l22-22V359a33.91,33.91,0,0,1-32.07,33.82l-150.8,0A33.91,33.91,0,0,1,243.8,359V344.32a3.13,3.13,0,0,0-3.13-3.13h-8.34a3.13,3.13,0,0,0-3.13,3.13V359a48.52,48.52,0,0,0,48.47,48.47l151.14,0A48.53,48.53,0,0,0,475.14,359V322.22l22,22a3.13,3.13,0,0,0,4.42,0l5.9-5.9A3.13,3.13,0,0,0,508.34,336.08Z"/><rect class="cls-4" x="226.2" y="192.42" width="20.6" height="129.41"/></g></g></svg>